<svg xmlns="http://www.w3.org/2000/svg" version="1.1" xmlns:xlink="http://www.w3.org/1999/xlink" xmlns:svgjs="http://svgjs.dev/svgjs" width="1000" height="623" viewBox="0 0 1000 623"><g transform="matrix(1,0,0,1,-0.6060606060606233,0.2522267206477409)"><svg viewBox="0 0 396 247" data-background-color="#102e44" preserveAspectRatio="xMidYMid meet" height="623" width="1000" xmlns="http://www.w3.org/2000/svg" xmlns:xlink="http://www.w3.org/1999/xlink"><g id="tight-bounds" transform="matrix(1,0,0,1,0.2400000000000091,-0.09999999999999432)"><svg viewBox="0 0 395.52 247.2" height="247.2" width="395.52"><g><svg viewBox="0 0 395.52 247.2" height="247.2" width="395.52"><g><svg viewBox="0 0 395.52 247.2" height="247.2" width="395.52"><g><svg viewBox="0 0 395.52 247.2" height="247.2" width="395.52"><g><svg viewBox="0 0 395.52 247.2" height="247.2" width="395.52"><g><svg viewBox="0 0 395.52 247.2" height="247.2" width="395.52"><g transform="matrix(1,0,0,1,139.4937541903116,65.33440123022848)"><svg viewBox="0 0 116.53249161937681 116.53119753954303" height="116.53119753954303" width="116.53249161937681"><g><svg xmlns="http://www.w3.org/2000/svg" xmlns:xlink="http://www.w3.org/1999/xlink" version="1.1" x="0" y="0" viewBox="4.9670000076293945 5 90.0009994506836 90" enable-background="new 0 0 100 100" xml:space="preserve" height="116.53119753954303" width="116.53249161937681" class="icon-o-0" data-fill-palette-color="accent" id="o-0"><g fill="#ef374b" data-fill-palette-color="accent"><polygon points="81.588,69.219 76.042,77.733 49.901,5 30.566,58.797 24.486,43.546 4.967,95 17.555,95 45,95 64.794,95 82.249,95    94.968,95  " fill="#ef374b" data-fill-palette-color="accent"></polygon></g></svg></g></svg></g><path d="M98.903 99.621V99.621L93.47 97.816C94.341 96.96 95.031 96.09 95.542 95.205 96.046 94.318 96.421 93.504 96.668 92.762V92.762C96.918 92.007 96.892 91.363 96.587 90.829 96.281 90.301 95.599 89.862 94.543 89.511V89.511L78.98 84.34 80.851 78.709 96.414 83.88C98.476 84.565 100.006 85.436 101.002 86.494 101.992 87.549 102.566 88.72 102.725 90.009 102.883 91.297 102.729 92.643 102.263 94.045V94.045C101.896 95.152 101.414 96.172 100.817 97.105 100.225 98.046 99.587 98.885 98.903 99.621ZM116.297 65.17L113.076 70.07 92.546 56.574 95.767 51.674ZM128.828 51.84L114.016 32.237 120.709 27.18 132.95 34.363 132.585 34.638 129.02 20.901 135.451 16.042 150.262 35.645 145.552 39.204 135.013 25.255 135.655 24.77 139.781 40.699 136.759 42.982 122.61 34.676 122.991 34.388 133.506 48.305ZM166.658 29.634L161.532 5.605 169.736 3.855 177.788 15.542 177.341 15.637 179.922 1.682 187.805 0 192.932 24.028 187.158 25.26 183.51 8.162 184.298 7.994 181.296 24.173 177.593 24.964 168.287 11.451 168.753 11.351 172.393 28.41ZM217.721 16.595L212.718 0.859 219.459 2.275 222.185 12.262 221.252 12.066 228.077 4.085 234.798 5.496 223.421 17.792 221.325 27.772 215.625 26.574ZM256.878 32.61L247.538 27.526 249.99 23.021 259.33 28.105ZM272.214 58.534V58.534C270.741 56.972 269.798 55.266 269.384 53.416 268.965 51.571 269.134 49.664 269.89 47.694 270.647 45.715 272.05 43.76 274.099 41.828V41.828C276.163 39.883 278.2 38.591 280.211 37.952 282.218 37.308 284.137 37.247 285.968 37.77 287.794 38.298 289.444 39.342 290.917 40.905V40.905C293.044 43.161 294.131 45.382 294.179 47.568 294.227 49.754 293.507 51.757 292.019 53.579V53.579L286.963 49.78C287.534 48.86 287.863 47.944 287.951 47.032 288.039 46.121 287.735 45.296 287.04 44.559V44.559C286.417 43.898 285.672 43.504 284.804 43.375 283.936 43.246 282.97 43.424 281.905 43.908 280.836 44.397 279.675 45.232 278.421 46.413V46.413C277.197 47.568 276.316 48.667 275.779 49.71 275.247 50.749 275.021 51.703 275.104 52.573 275.186 53.443 275.529 54.198 276.133 54.839V54.839C276.992 55.751 277.877 56.206 278.786 56.204 279.695 56.203 280.497 55.875 281.192 55.221V55.221L285.439 59.726C284.065 61.022 282.639 61.842 281.161 62.188 279.684 62.533 278.19 62.402 276.68 61.795 275.175 61.183 273.686 60.096 272.213 58.534ZM291.103 89.226V89.226C290.216 87.07 289.895 85.002 290.141 83.023 290.391 81.036 291.221 79.233 292.633 77.613 294.042 75.987 296.048 74.638 298.652 73.567V73.567C301.33 72.465 303.726 72.002 305.84 72.178 307.946 72.35 309.757 73.067 311.271 74.328 312.784 75.582 313.984 77.288 314.871 79.445V79.445C315.769 81.627 316.107 83.709 315.884 85.692 315.655 87.678 314.851 89.477 313.473 91.091 312.086 92.7 310.1 94.037 307.514 95.101V95.101C304.861 96.193 302.463 96.661 300.321 96.503 298.176 96.34 296.329 95.631 294.781 94.377 293.227 93.125 292.001 91.408 291.103 89.226ZM295.965 87.226V87.226C296.616 88.806 297.759 89.816 299.393 90.254 301.034 90.689 302.988 90.44 305.255 89.507V89.507C307.388 88.63 308.877 87.461 309.724 86.002 310.571 84.543 310.669 83.023 310.019 81.442V81.442C309.388 79.91 308.259 78.924 306.63 78.484 305.001 78.044 303.109 78.267 300.952 79.155V79.155C298.709 80.078 297.158 81.271 296.299 82.735 295.446 84.197 295.335 85.694 295.965 87.226ZM83.127 158.904V158.904L88.68 157.051C88.486 158.289 88.453 159.425 88.581 160.458 88.711 161.497 88.902 162.393 89.154 163.148V163.148C89.412 163.921 89.831 164.431 90.409 164.678 90.981 164.927 91.808 164.871 92.889 164.51V164.51L108.793 159.2 110.713 164.951 94.809 170.261C92.703 170.964 90.919 171.186 89.456 170.926 87.996 170.674 86.805 170.069 85.885 169.111 84.973 168.158 84.278 166.966 83.8 165.533V165.533C83.42 164.395 83.185 163.262 83.094 162.132 83.01 161.001 83.021 159.925 83.127 158.904ZM100.963 198.159L97.676 193.148 118.679 179.374 121.965 184.386ZM117.444 215.731L132.622 195.72 139.456 200.904 135.786 214.936 135.414 214.653 147.937 207.337 154.502 212.316 139.323 232.326 134.517 228.681 145.316 214.443 145.974 214.941 131.438 223.414 128.358 221.078 132.613 204.844 133.001 205.138 122.219 219.353ZM162.559 241.456L167.811 216.896 176.199 218.69 178.83 232.954 178.373 232.856 186.608 220.916 194.666 222.64 189.413 247.2 183.513 245.938 187.251 228.463 188.057 228.636 178.491 242.476 174.71 241.667 171.674 225.162 172.151 225.264 168.419 242.71ZM217.234 234.404L206.078 221.741 212.964 220.292 219.629 228.507 218.676 228.708 221.775 218.437 228.642 216.992 223.06 233.178 225.207 243.381 219.381 244.607ZM257.07 220.991L247.512 226.176 245.01 221.563 254.568 216.378ZM286.217 208.305V208.305C284.704 209.902 283.017 210.964 281.156 211.492 279.296 212.029 277.337 211.966 275.281 211.304 273.224 210.642 271.15 209.32 269.058 207.337V207.337C266.957 205.345 265.52 203.345 264.75 201.336 263.978 199.317 263.807 197.361 264.234 195.465 264.666 193.574 265.639 191.83 267.152 190.234V190.234C269.331 187.935 271.531 186.697 273.753 186.521 275.984 186.344 278.072 186.963 280.017 188.378V188.378L276.442 193.753C275.463 193.227 274.506 192.945 273.572 192.909 272.634 192.869 271.809 193.224 271.098 193.974V193.974C270.46 194.647 270.101 195.43 270.022 196.323 269.938 197.22 270.175 198.198 270.733 199.256 271.296 200.319 272.214 201.455 273.489 202.663V202.663C274.739 203.848 275.912 204.686 277.008 205.177 278.099 205.663 279.088 205.838 279.975 205.702 280.857 205.571 281.608 205.178 282.228 204.524V204.524C283.113 203.591 283.526 202.659 283.468 201.728 283.41 200.797 283.03 199.998 282.328 199.333V199.333L286.677 194.745C288.076 196.072 288.995 197.481 289.434 198.974 289.872 200.457 289.824 201.987 289.289 203.562 288.75 205.132 287.726 206.713 286.217 208.305ZM309.02 171.738V171.738C308.106 173.941 306.846 175.671 305.241 176.928 303.628 178.188 301.727 178.895 299.54 179.049 297.344 179.207 294.915 178.733 292.253 177.628V177.628C289.523 176.495 287.457 175.103 286.055 173.452 284.65 171.808 283.854 169.982 283.669 167.975 283.48 165.974 283.843 163.872 284.758 161.669V161.669C285.68 159.447 286.936 157.698 288.528 156.422 290.128 155.142 292.01 154.42 294.172 154.256 296.338 154.085 298.739 154.548 301.377 155.642V155.642C304.082 156.765 306.154 158.159 307.593 159.826 309.035 161.486 309.862 163.332 310.073 165.363 310.293 167.392 309.942 169.517 309.02 171.738ZM304.063 169.681V169.681C304.731 168.071 304.63 166.516 303.761 165.015 302.89 163.519 301.294 162.29 298.975 161.328V161.328C296.796 160.424 294.876 160.193 293.214 160.637 291.549 161.087 290.383 162.117 289.715 163.726V163.726C289.065 165.293 289.169 166.821 290.029 168.311 290.885 169.808 292.415 171.013 294.619 171.927V171.927C296.914 172.88 298.899 173.134 300.576 172.689 302.25 172.25 303.413 171.248 304.063 169.681ZM77.602 126.625C77.602 121.326 81.898 117.031 87.197 117.031 92.495 117.031 96.791 121.326 96.791 126.625 96.791 131.924 92.495 136.219 87.197 136.219 81.898 136.219 77.602 131.924 77.602 126.625ZM298.729 126.625C298.729 121.326 303.025 117.031 308.323 117.031 313.622 117.031 317.918 121.326 317.918 126.625 317.918 131.924 313.622 136.219 308.323 136.219 303.025 136.219 298.729 131.924 298.729 126.625Z" fill="#f5f6f9" data-fill-palette-color="primary"></path></svg></g></svg></g></svg></g><g></g></svg></g></svg></g><defs><mask id="8a4d026b-d710-4f1b-8466-3fc9ea49a04a"><rect width="640" height="400" fill="white"></rect><rect width="348.05760000000004" height="194.427744" fill="black" x="145.97119999999998" y="102.786128" id="transform-me" transform="matrix(1,0,0,1,-122.24000000000001,-76.4)"></rect></mask></defs></svg><rect width="395.52" height="247.2" fill="none" stroke="none" visibility="hidden"></rect></g></svg></g></svg>