<svg xmlns="http://www.w3.org/2000/svg" version="1.1" xmlns:xlink="http://www.w3.org/1999/xlink" xmlns:svgjs="http://svgjs.dev/svgjs" width="1000" height="186" viewBox="0 0 1000 186"><g transform="matrix(1,0,0,1,-0.6060606060606233,0.3195458530936435)"><svg viewBox="0 0 396 74" data-background-color="#000000" preserveAspectRatio="xMidYMid meet" height="186" width="1000" xmlns="http://www.w3.org/2000/svg" xmlns:xlink="http://www.w3.org/1999/xlink"><g id="tight-bounds" transform="matrix(1,0,0,1,0.2400000000000091,-0.12713114585446306)"><svg viewBox="0 0 395.52 74.25426229170894" height="74.25426229170894" width="395.52"><g><svg viewBox="0 0 500.81920433282744 94.02295853371446" height="74.25426229170894" width="395.52"><g transform="matrix(1,0,0,1,105.29920433282749,23.06878547166638)"><svg viewBox="0 0 395.52 47.8853875903817" height="47.8853875903817" width="395.52"><g id="textblocktransform"><svg viewBox="0 0 395.52 47.8853875903817" height="47.8853875903817" width="395.52" id="textblock"><g><svg viewBox="0 0 395.52 47.8853875903817" height="47.8853875903817" width="395.52"><g transform="matrix(1,0,0,1,0,0)"><svg width="395.52" viewBox="-0.65 -35.5 297.33 36" height="47.8853875903817" data-palette-color="#ffffff"><g transform="matrix(1,0,0,1,0,0)"><g><svg width="0" viewBox="0 0 0 0" height="8.239" data-palette-color="#ffffff" id="scriptelement" x="296.68" y="-35.5"><path d="M0 0" opacity="1" transform="matrix(1,0,0,1,0,0)" fill="#ffffff" class="undefined-123" id="av-123"></path></svg></g></g><path d="M10.15 0.5Q6.8 0.5 3.98-0.83 1.15-2.15-0.65-4.55L-0.65-4.55 3.05-9Q5.95-5 10-5L10-5Q15.45-5 15.45-11.45L15.45-11.45 15.45-29.55 3-29.55 3-35 21.95-35 21.95-11.8Q21.95-5.65 18.95-2.58 15.95 0.5 10.15 0.5L10.15 0.5ZM47.25 0.5Q41.95 0.5 37.67-1.83 33.4-4.15 30.97-8.25 28.55-12.35 28.55-17.5L28.55-17.5Q28.55-22.65 31-26.75 33.45-30.85 37.72-33.18 42-35.5 47.3-35.5L47.3-35.5Q51.6-35.5 55.15-34 58.7-32.5 61.15-29.65L61.15-29.65 56.95-25.7Q53.15-29.8 47.6-29.8L47.6-29.8Q44-29.8 41.15-28.23 38.3-26.65 36.7-23.85 35.1-21.05 35.1-17.5L35.1-17.5Q35.1-13.95 36.7-11.15 38.3-8.35 41.15-6.78 44-5.2 47.6-5.2L47.6-5.2Q53.15-5.2 56.95-9.35L56.95-9.35 61.15-5.35Q58.7-2.5 55.12-1 51.55 0.5 47.25 0.5L47.25 0.5ZM65.2-11.3L65.2-16.5 78.95-16.5 78.95-11.3 65.2-11.3ZM110.29-7L110.29-17.9 116.44-17.9 116.44-3.95Q113.74-1.8 110.14-0.65 106.54 0.5 102.74 0.5L102.74 0.5Q97.39 0.5 93.09-1.83 88.79-4.15 86.34-8.25 83.89-12.35 83.89-17.5L83.89-17.5Q83.89-22.65 86.34-26.75 88.79-30.85 93.12-33.18 97.44-35.5 102.84-35.5L102.84-35.5Q107.24-35.5 110.84-34.05 114.44-32.6 116.89-29.8L116.89-29.8 112.79-25.8Q108.79-29.8 103.14-29.8L103.14-29.8Q99.44-29.8 96.57-28.25 93.69-26.7 92.07-23.9 90.44-21.1 90.44-17.5L90.44-17.5Q90.44-14 92.07-11.2 93.69-8.4 96.57-6.8 99.44-5.2 103.09-5.2L103.09-5.2Q107.19-5.2 110.29-7L110.29-7ZM124.99 0L124.99-35 131.49-35 131.49-5.5 149.79-5.5 149.79 0 124.99 0ZM170.64 0.5Q165.29 0.5 160.99-1.83 156.69-4.15 154.24-8.28 151.79-12.4 151.79-17.5L151.79-17.5Q151.79-22.6 154.24-26.73 156.69-30.85 160.99-33.18 165.29-35.5 170.64-35.5L170.64-35.5Q175.99-35.5 180.29-33.18 184.59-30.85 187.04-26.75 189.49-22.65 189.49-17.5L189.49-17.5Q189.49-12.35 187.04-8.25 184.59-4.15 180.29-1.83 175.99 0.5 170.64 0.5L170.64 0.5ZM170.64-5.2Q174.14-5.2 176.94-6.78 179.74-8.35 181.34-11.18 182.94-14 182.94-17.5L182.94-17.5Q182.94-21 181.34-23.83 179.74-26.65 176.94-28.23 174.14-29.8 170.64-29.8L170.64-29.8Q167.14-29.8 164.34-28.23 161.54-26.65 159.94-23.83 158.34-21 158.34-17.5L158.34-17.5Q158.34-14 159.94-11.18 161.54-8.35 164.34-6.78 167.14-5.2 170.64-5.2L170.64-5.2ZM221.19-18.2Q224.09-17.25 225.78-15.03 227.49-12.8 227.49-9.5L227.49-9.5Q227.49-4.95 223.99-2.48 220.49 0 213.78 0L213.78 0 196.38 0 196.38-35 212.78-35Q218.99-35 222.34-32.58 225.69-30.15 225.69-25.9L225.69-25.9Q225.69-23.3 224.49-21.3 223.28-19.3 221.19-18.2L221.19-18.2ZM212.09-29.9L202.88-29.9 202.88-20.25 212.09-20.25Q215.49-20.25 217.31-21.48 219.13-22.7 219.13-25.05L219.13-25.05Q219.13-27.45 217.31-28.68 215.49-29.9 212.09-29.9L212.09-29.9ZM213.38-5.1Q220.94-5.1 220.94-10.15L220.94-10.15Q220.94-15.2 213.38-15.2L213.38-15.2 202.88-15.2 202.88-5.1 213.38-5.1ZM260.63 0L257.13-8.1 239.63-8.1 236.18 0 229.48 0 245.23-35 251.63-35 267.43 0 260.63 0ZM241.83-13.2L254.98-13.2 248.38-28.5 241.83-13.2ZM271.88 0L271.88-35 278.38-35 278.38-5.5 296.68-5.5 296.68 0 271.88 0Z" opacity="1" transform="matrix(1,0,0,1,0,0)" fill="#ffffff" class="undefined-text-0" data-fill-palette-color="primary" id="text-0"></path></svg></g></svg></g></svg></g></svg></g><g><svg viewBox="0 0 93.99461357204054 94.02295853371446" height="94.02295853371446" width="93.99461357204054"><g><svg xmlns="http://www.w3.org/2000/svg" xmlns:xlink="http://www.w3.org/1999/xlink" version="1.1" x="0" y="0" viewBox="5.0880977198060595 4.656180236172516 66.54412884490382 66.56419585417227" enable-background="new 0 0 75 75" xml:space="preserve" height="94.02295853371446" width="93.99461357204054" class="icon-icon-0" data-fill-palette-color="accent" id="icon-0"><g fill="#ffffff" data-fill-palette-color="accent"><g fill="#ffffff" data-fill-palette-color="accent"><g fill="#ffffff" data-fill-palette-color="accent"><path d="M14.291 23.127l-1.135 2.508c1.796 1.206 3.72 2.119 5.757 2.738 0.263-1.003 0.713-1.983 1.072-2.967 0.146-0.398-0.252-1.393 0.857-0.933 0.088-0.273 0.301-0.583 0.236-0.814-0.134-0.477-0.427-0.908-0.633-1.367-0.095-0.21-0.237-0.468-0.189-0.664 0.38-1.584-0.036-3.172 0.041-4.756 0.006-0.128-0.278-0.28-0.439-0.403-0.185-0.141-0.395-0.249-0.574-0.396-1.463-1.198-2.426-1.385-3.374-0.132-0.15 0.199-0.342 0.378-0.545 0.522-0.257 0.181-0.546 0.317-0.822 0.472-0.038-0.375-0.18-0.78-0.085-1.118 0.086-0.307 0.402-0.572 0.664-0.801 0.416-0.365 0.884-0.671 1.306-1.031 0.252-0.215 0.657-0.461 0.264-0.834-0.083-0.08-0.534 0.103-0.719 0.271-1.99 1.808-3.815 3.777-5.269 6.041-0.494 0.769-0.956 1.545-1.386 2.328L14.291 23.127z" fill="#ffffff" data-fill-palette-color="accent"></path></g><g fill="#ffffff" data-fill-palette-color="accent"><path d="M42.123 70.074c0.229-1.125-1.058-2.229-0.039-3.361 0.114-0.125 0.1-0.384 0.111-0.584 0.045-0.854-0.042-1.737 0.143-2.56 0.435-1.93-0.199-3.083-2.059-3.853-0.734-0.304-1.191-1.295-1.76-1.986-0.47-0.573-0.929-1.158-1.372-1.753-0.136-0.184-0.329-0.47-0.27-0.622 0.149-0.387 0.425-0.726 0.651-1.084-0.604-0.302-0.548-0.758-0.238-1.217 0.247-0.365 0.524-0.724 0.851-1.016 0.798-0.714 0.845-1.546 0.498-2.474-0.14-0.376-0.271-0.755-0.407-1.131-0.316 0.009-0.633 0.019-0.949 0.028-0.189 0.171-0.423 0.519-0.559 0.484-0.883-0.226-1.81-0.594-2.244-1.382-0.983-1.784-3.254-1.469-4.415-2.893-0.024-0.03-0.102-0.041-0.145-0.029-1.508 0.432-2.595-0.568-3.797-1.139-0.696-0.33-1.188-0.803-1.264-1.716-0.054-0.651-0.482-1.281-0.789-1.898-0.199-0.398-0.511-0.739-0.717-1.134-0.487-0.935-0.935-1.89-1.418-2.825-0.083-0.163-0.263-0.276-0.398-0.412-0.117 0.185-0.246 0.365-0.343 0.559-0.041 0.083 0.001 0.202-0.019 0.3-0.018 0.092-0.068 0.177-0.105 0.265-0.109-0.091-0.282-0.163-0.317-0.276-0.148-0.481-0.236-0.98-0.384-1.461-0.101-0.328-0.177-0.737-0.411-0.937-0.652-0.556-1.007-1.2-1.184-1.884-2.671-0.345-5.112-1.27-7.284-2.765l-1.398 3.093-2.875-6.104c-2.17 5.689-2.716 11.709-1.477 18.058 1.486 7.615 5.257 13.979 11.167 18.969 6.647 5.611 14.416 8.19 23.113 7.858 1.215-0.045 2.419-0.38 3.628-0.588-0.336-0.022-0.68-0.011-0.996-0.099C42.442 70.447 42.1 70.183 42.123 70.074z" fill="#ffffff" data-fill-palette-color="accent"></path></g><g fill="#ffffff" data-fill-palette-color="accent"><path d="M43.697 70.597c-0.018 0.002-0.032 0.007-0.048 0.009 0.019 0.001 0.037 0.001 0.057 0.004L43.697 70.597z" fill="#ffffff" data-fill-palette-color="accent"></path></g></g><g fill="#ffffff" data-fill-palette-color="accent"><g fill="#ffffff" data-fill-palette-color="accent"><path d="M44.946 47.787c0.211-0.075 0.406-0.112 0.591-0.123-0.074-6.17-2.747-10.923-5.274-14.042-0.16 0.211-0.374 0.392-0.655 0.544-0.482 0.262-0.881 0.676-1.346 0.978-0.671 0.436-0.97 0.965-0.732 1.79 0.166 0.577 0.24 1.188 0.281 1.788 0.015 0.211-0.189 0.438-0.294 0.657-0.169-0.144-0.392-0.257-0.493-0.438-0.145-0.258-0.258-0.562-0.282-0.854-0.063-0.775-0.244-1.301-1.202-1.409-0.676-0.077-1.391-0.661-2.016-0.203-0.136 0.101-0.265 0.191-0.39 0.268-0.659 0.927-1.53 1.769-2.688 2.382l1.037 1.396-2.849-0.192c-0.024 0.221-0.046 0.441-0.068 0.662-0.089 0.891 0.739 2.294 1.479 2.441 0.47 0.094 1.037 0.096 1.461-0.089 0.348-0.151 0.552-0.638 0.815-0.979 0.061-0.08 0.091-0.231 0.161-0.249 0.465-0.114 0.937-0.201 1.407-0.298-0.063 0.305-0.119 0.611-0.191 0.913-0.07 0.292-0.143 0.586-0.24 0.87-0.383 1.129-0.386 1.125 0.883 1.235 0.25 0.022 0.51 0.034 0.744 0.113 0.482 0.162 0.788 0.447 0.576 1.025-0.086 0.235-0.147 0.487-0.17 0.734-0.11 1.202 0.456 1.75 1.791 1.754 0.316-0.01 0.633-0.02 0.949-0.028 0.407 0.23 0.763 0.638 1.188-0.065 0.544-0.895 1.267-1.56 2.438-0.945 0.697-0.401 1.291-0.176 1.931 0.21C44.101 47.821 44.615 47.908 44.946 47.787z" fill="#ffffff" data-fill-palette-color="accent"></path></g><g fill="#ffffff" data-fill-palette-color="accent"><path d="M70.885 31.56c-0.04-0.202-0.436-0.513-0.591-0.474-0.293 0.074-0.677 0.317-0.766 0.577-0.207 0.612-1.774 1.397-1.826 1.096-0.102-0.593-0.058-0.86-0.04-1.463 0.003-0.125 0.266-0.335 0.423-0.349 0.866-0.074 1.17-0.32 0.767-1.008-0.668-1.141 0.009-1.999 0.508-2.736 0.279-0.413 0.306-0.575 0.142-0.933-0.689-1.502-1.373-3.008-2.062-4.512-0.062-0.137-0.141-0.268-0.216-0.4-1.592-2.786-3.54-5.29-5.92-7.445-0.228-0.205-0.562-0.291-0.847-0.433-0.112 0.374-0.336 0.759-0.302 1.118 0.028 0.292 0.373 0.55 0.569 0.828 0.054 0.076 0.128 0.183 0.107 0.25-0.019 0.063-0.188 0.15-0.228 0.126-0.823-0.5-1.408 0.431-2.087 0.366-1.019-0.097-1.347 0.444-1.589 1.23-0.119 0.385-0.243 0.772-0.421 1.13-0.05 0.102-0.342 0.193-0.447 0.14-1.038-0.521-1.803-1.228-1.807-2.525-0.001-0.412-0.219-0.83-0.37-1.233-0.121-0.324-0.243-0.588 0.299-0.573 0.07 0.002 0.178-0.266 0.218-0.421 0.428-1.654-1.274-2.442-1.593-3.831-0.12-0.521-0.86-0.91-1.346-1.328-0.141-0.121-0.377-0.128-0.568-0.193-0.285-0.098-0.568-0.202-0.815-0.29 0.336-0.271 0.659-0.532 0.983-0.792-0.388-0.205-0.763-0.442-1.168-0.603-0.368-0.146-0.823-0.123-1.146-0.325-0.634-0.396-1.821-0.603-1.957-0.688-0.165-0.105-0.372-0.195-0.562-0.197-0.244-0.002-1.476-0.307-1.5-0.315-0.281-0.104-0.577-0.188-0.876-0.231-0.998-0.146-1.995-0.333-2.998-0.396-4.959-0.305-9.782 0.368-14.425 2.158-1.222 0.472-2.392 1.078-3.577 1.641-0.1 0.048-0.133 0.235-0.197 0.358 0.093 0.035 0.184 0.091 0.28 0.101 0.749 0.075 1.528 0.039 2.237 0.247 0.447 0.131 0.813 0.195 1.284 0.147 1.2-0.122 2.388-0.598 3.617-0.239 0.614 0.18 1.344 0.245 1.8 0.626 0.724 0.607 0.649 0.685 1.103 0.774 0.169 0.033 0.454 0.151 0.46 0.244 0.03 0.483 0.136 0.481 0.513 0.216 0.379-0.266 0.874-0.625 1.264-0.569 0.831 0.119 1.726 0.333 2.41 0.785 0.696 0.461 1.001 0.008 1.431-0.248 0.511-0.305 0.935-0.651 0.4-1.322-0.06-0.076 0.209-0.476 0.394-0.657 0.122-0.12 0.365-0.118 0.555-0.17 0.048 0.224 2.202 2.091 2.588 1.864 0.16-0.096 0.46-0.011 0.673 0.062 0.094 0.032 0.128 0.238 0.19 0.365-0.487 0.153-2.604 1.273-3.101 1.833-0.285 0.321-0.683 0.639-1.085 0.742-1.436 0.364-2.49 1.286-3.504 2.265-0.378 0.365-0.179 2.516 0.192 2.522 1.328 0.02 1.899 1.302 2.991 1.645 0.655 0.205 0.732 0.592 0.594 1.155-0.048 0.19-0.147 0.459-0.062 0.576 0.278 0.383 0.631 0.712 0.955 1.062 0.233-0.354 0.647-0.699 0.663-1.062 0.033-0.793 0.097-1.395 1.008-1.694 0.299-0.098 0.691-0.808 0.592-1.061-0.411-1.039 0.292-1.82 0.464-2.709 0.179-0.923 0.243-0.911 1.209-0.688 0.818 0.19 1.869 1.183 1.646 1.743-0.295 0.736 0.219 1.058 0.558 1.344 0.154 0.131 0.753-0.25 1.143-0.418 0.082-0.036 0.122-0.158 0.192-0.229 0.271-0.278 0.374-0.13 0.512 0.156 0.512 1.059 0.369 2.389 1.301 3.276 0.479-0.039 0.966-0.061 1.457-0.061 2.556 0 4.992 0.559 7.249 1.661l0.925-3.267 7.321 10.958-10.095-1.151 0.749-2.65c-2.921-1.383-6.06-2.084-9.33-2.084-0.607 0-1.2 0.025-1.777 0.069 0.069 0.053 0.162 0.076 0.272 0.045 0.024 0.343 0.013 0.693 0.086 1.025 0.053 0.236 0.187 0.475 0.341 0.666 0.447 0.554 0.242 0.918-0.312 1.187-0.148 0.072-0.33 0.079-0.495 0.115 0.031-0.14 0.049-0.286 0.099-0.419 0.048-0.129 0.13-0.244 0.196-0.366-0.143-0.027-0.309-0.113-0.427-0.07-0.467 0.169-0.914 0.387-1.376 0.57-0.54 0.215-1.033 0.503-1.104 1.13-0.044 0.39-1.923 2.045-2.811 2.966 3.861 3.009 8.551 8.17 8.444 15.437l3.349-0.553-1.981 3.287c0.739 0.45 1.018 1.367 0.633 2.36-0.179 0.462 0.049 0.536 0.384 0.541 0.299 0.004 0.598-0.058 0.897-0.087 0.246-0.023 0.601-0.155 0.724-0.041 1.075 0.997 2.701 0.063 3.777 1.15 0.629 0.637 0.919 1.003 0.327 1.617-1.161 1.207-1.657 2.707-2.265 4.186-0.262 0.637-0.741 1.098-1.472 1.409-1.031 0.438-1.832 1.15-2.555 2.165-0.787 1.104-1.541 2.694-3.376 2.671-0.099-0.001-0.306 0.282-0.283 0.321 0.357 0.576-0.064 0.732-0.464 0.844-1.797 0.496-2.938 1.652-3.52 3.397 0.646-0.058 1.31-0.038 1.934-0.188 10.304-2.476 17.83-8.468 22.662-17.893 0.796-1.553 1.176-3.215 1.628-4.867 0.104-0.377-0.033-0.477-0.297-0.688-0.343-0.275-0.504-0.123-0.762 0.069-0.36 0.27-0.762 0.482-1.138 0.73-0.413 0.271-0.738 0.248-0.991-0.222-0.31-0.57-0.591-1.165-0.974-1.683-0.475-0.642-0.496-1.264-0.264-1.995 0.181-0.57 0.394-1.218 0.289-1.775-0.284-1.511 0.479-2.607 1.202-3.762 0.287-0.454 0.633-0.958 0.673-1.463 0.111-1.383 1.089-1.854 2.146-2.259 0.416-0.159 0.821-0.055 0.869 0.513 0.06 0.707 0.253 1.345 0.926 1.947C71.742 35.075 71.238 33.324 70.885 31.56zM49.673 14.441c-0.057 0.034-0.298-0.083-0.314-0.162-0.156-0.735-0.726-0.739-1.285-0.751-0.6-0.015-1.098-0.012-0.959-0.914 0.05-0.316-0.437-0.712-0.675-1.074-0.537-0.815-1.135-1.479-2.272-1.259-0.323 0.062-0.688-0.131-1.038-0.154-0.643-0.041-0.621-0.611-0.715-0.984C42.362 8.94 42.659 8.567 42.891 8.4c0.214-0.152 0.551-0.129 0.833-0.183-0.135 0.202-0.313 0.389-0.389 0.611-0.056 0.159 0.025 0.365 0.046 0.55 0.143-0.087 0.301-0.158 0.426-0.267 0.187-0.164 0.326-0.396 0.534-0.52 0.154-0.092 0.551-0.094 0.554-0.078 0.227 1.113 1.494 0.802 2.05 1.526 0.559 0.726 1.426 1.17 1.582 2.247 0.056 0.389 0.689 0.683 1.03 1.046 0.188 0.199 0.313 0.454 0.45 0.656C49.854 14.21 49.79 14.37 49.673 14.441z" fill="#ffffff" data-fill-palette-color="accent"></path></g><g fill="#ffffff" data-fill-palette-color="accent"><polygon points="43.706,70.609 43.71,70.596 43.697,70.597    " fill="#ffffff" data-fill-palette-color="accent"></polygon></g></g></g><path d="M21.209 31.595c-3.637 0-6.887-1.019-9.662-3.027l-0.321-0.233-1.145 2.534-4.421-9.39 7.728 2.076-1.044 2.309 0.223 0.153c3.826 2.637 8.221 3.974 13.062 3.974 0 0 0 0 0.001 0 2.068 0 3.894-0.247 5.332-0.539C28.57 30.46 25.03 31.595 21.209 31.595z" fill="#ffffff" data-fill-palette-color="accent"></path><path d="M57.879 29.147l0.689-2.438-0.243-0.119c-3.079-1.504-6.396-2.268-9.857-2.268-3.586 0-6.71 0.83-8.878 1.623 2.724-1.665 7.165-3.794 12.058-3.794 2.585 0 5.042 0.594 7.306 1.765l0.353 0.183 0.758-2.675 5.765 8.629L57.879 29.147z" fill="#ffffff" data-fill-palette-color="accent"></path><path d="M43.756 48.949l2.501-0.413 0.003-0.27c0.128-8.344-4.388-14.241-7.396-17.234 3.938 2.604 10.41 8.196 10.084 16.666l-0.016 0.396 2.743-0.453-5.358 8.889L43.756 48.949z" fill="#ffffff" data-fill-palette-color="accent"></path><path d="M26.173 39.51l2.163-2.233 0.662 0.89 0.243-0.12c2.622-1.3 4.11-3.346 4.944-5.088-0.504 2.05-1.661 4.524-4.295 5.756l-0.36 0.167 0.667 0.898L26.173 39.51z" fill="#ffffff" data-fill-palette-color="accent"></path><path d="M32.481 24.355c-1.595-1.383-3.271-3.539-3.167-6.445l0.015-0.397-1.104 0.185 2.074-3.459 1.002 2.943-1.094 0.184-0.003 0.271C30.167 20.562 31.31 22.818 32.481 24.355z" fill="#ffffff" data-fill-palette-color="accent"></path></svg></g></svg></g></svg></g><defs></defs></svg><rect width="395.52" height="74.25426229170894" fill="none" stroke="none" visibility="hidden"></rect></g></svg></g></svg>